<svg xmlns="http://www.w3.org/2000/svg" xmlns:xlink="http://www.w3.org/1999/xlink" width="174.672" height="114.835" viewBox="0 0 174.672 114.835">
  <defs>
    <clipPath id="clip-path">
      <rect id="Rectangle_41" data-name="Rectangle 41" width="57.052" height="165.339" fill="#799d4c"/>
    </clipPath>
  </defs>
  <g id="arrow" transform="matrix(0.921, 0.391, -0.391, 0.921, 45.681, -45.682)">
    <g id="Group_30" data-name="Group 30" transform="translate(116.913 0) rotate(45)" clip-path="url(#clip-path)">
      <path id="Path_34" data-name="Path 34" d="M46.843,127.741c-2.945-2.613-8.7-3-11.59,0-1.595,1.655-4.518,7.342-6.113,9,3.54-32.551,3.335-69.518-3.566-101.719-1.23-5.738-2.567-11.465-4.19-17.125-1.592-5.555-2.894-11.415-5.9-16.511C13.981-1.163,9.569.1,9.545,2.808,9.5,7.817,10.9,12.781,11.722,17.73c.816,4.911,1.593,9.831,2.251,14.76,1.332,9.993,2.41,20.013,2.981,30.065,1.04,18.323,4.234,49.2,2.518,67.512-1.286-2.9-6.437-18.136-7.946-20.973-1.672-3.142-6.607-4.193-9.945-2.891-3.623,1.414-.026,5.579,1,9.061,4.467,15.105,11.628,40.021,11.628,40.021s.389,10.055,4.042,10.055c3.423,0,3.015-1.077,5.407-3.731.079-.4,2.329-4.08,2.407-4.482,4.949-7.949,9.339-12.413,16.1-19.3,2.907-2.959,7.951-7.175,4.67-10.085" transform="translate(3.299 0)" fill="#799d4c"/>
      <path id="Path_35" data-name="Path 35" d="M10.708,27.1q-1.239-4.33-2.442-8.668L3.436,1.085C2.978-.56-.24-.264.014,1.5q1.311,9.056,2.621,18.112.637,4.4,1.244,8.812c.415,3.022.51,6.162,2.03,8.931,1.676,3.053,6.343,1.235,6.61-1.588.272-2.876-1.02-5.9-1.811-8.66" transform="translate(44.496 12.041)" fill="#799d4c"/>
    </g>
  </g>
</svg>
