<svg xmlns="http://www.w3.org/2000/svg" xmlns:xlink="http://www.w3.org/1999/xlink" width="146.85" height="141.748" viewBox="0 0 146.85 141.748">
  <defs>
    <clipPath id="clip-path">
      <rect id="Rectangle_63" data-name="Rectangle 63" width="134.606" height="139.997" fill="#2b65ad"/>
    </clipPath>
  </defs>
  <g id="Arrow" transform="translate(146.85 7.327) rotate(93)">
    <g id="Group_50" data-name="Group 50" clip-path="url(#clip-path)">
      <path id="Path_156" data-name="Path 156" d="M133.092,109.239c-2.16-2.16-5.163-1.772-7.354,0L109.964,122c3.934-13.311,7.147-26.806,8.01-40.737.959-15.483-1.368-31.3-8.1-45.365A62.581,62.581,0,0,0,78.851,5.549C65.388-.368,50.237-1.833,36.087,2.517,20.9,7.185,7.451,17.674.232,31.924a1.851,1.851,0,0,0,3.194,1.867A60.354,60.354,0,0,1,33.594,10.146a55.41,55.41,0,0,1,67.189,27c6.39,12.142,8.588,26.061,8.094,39.635-.483,13.257-3.454,26.3-7.343,39a101.385,101.385,0,0,0-7.519-14.937,5.291,5.291,0,0,0-7.105-1.863c-2.655,1.553-2.988,4.524-1.863,7.105,3.49,8.009,6.992,16.01,10.589,23.969q.855,3.063,1.5,6.205a5.042,5.042,0,0,0,3.553,3.553,5.325,5.325,0,0,0,4.95-1.308l27.453-21.914c2.2-1.753,1.83-5.524,0-7.354" transform="translate(0 0)" fill="#2b65ad"/>
    </g>
  </g>
</svg>
