<svg id="Underline" xmlns="http://www.w3.org/2000/svg" xmlns:xlink="http://www.w3.org/1999/xlink" width="177.592" height="16.166" viewBox="0 0 177.592 16.166">
  <defs>
    <clipPath id="clip-path">
      <rect id="Rectangle_54" data-name="Rectangle 54" width="177.592" height="16.165" fill="#799d4c"/>
    </clipPath>
  </defs>
  <g id="Group_41" data-name="Group 41" transform="translate(0 0)" clip-path="url(#clip-path)">
    <path id="Path_118" data-name="Path 118" d="M3.675,14.054A834.058,834.058,0,0,1,90.04,4.763c26.939-1.507,55.717-4.926,80.723,7.463l4.833-2.853C140.248-.189,103.78,5.517,68.5,12.394c-5.595,1.09-1.3,3.886,2.343,3.312a298.864,298.864,0,0,1,95.674.411c2.754.457,10.026-2.451,4.38-3.385a320.061,320.061,0,0,0-102.4-.338l2.343,3.312C104.1,9.222,138.217,3.573,171.6,12.464c1.66.441,8.753-.933,4.831-2.853C151.053-2.814,122.227-.2,94.893,1.335,63.743,3.09,31.783,4.585,1.336,11.881c-3.446.826.665,2.442,2.338,2.173" transform="translate(0 0.001)" fill="#799d4c"/>
  </g>
</svg>
