<svg xmlns="http://www.w3.org/2000/svg" xmlns:xlink="http://www.w3.org/1999/xlink" width="645.396" height="25.437" viewBox="0 0 645.396 25.437">
  <defs>
    <clipPath id="clip-path">
      <rect id="Rectangle_55" data-name="Rectangle 55" width="645.396" height="25.437" fill="#799d4c"/>
    </clipPath>
  </defs>
  <g id="Group_48" data-name="Group 48" clip-path="url(#clip-path)">
    <path id="Path_125" data-name="Path 125" d="M11.139,22.173c9.055-14.334,36.28-2.167,52.459.113a100.244,100.244,0,0,0,25.381.289c13.809-1.621,24.343-8.1,37.527-9.662C149.82,10.144,165.533,18,186.393,20.7c21.173,2.747,40.06-.657,58.948-5.644C269.7,8.633,287.073,7.513,311.693,15c10.33,3.141,20.752,5.446,32.857,5.735,37.094.89,79.816-22.341,112.978-10.114C476.2,17.5,486.12,25.224,511.309,23.739c12.334-.727,22.8-3.636,33.487-6.791,15.629-4.615,15.344-6.623,38,.062,4.946,1.46,8.213,4.088,13.48,5.537,14.547,4,35.535,4.313,47.608-2.042,8.025-4.224-18.275-4.787-23.562-2.607-3.195,1.317-28.672-10.8-34.625-11.887a104.292,104.292,0,0,0-27.269-.763c-10.43,1.016-18.92,3.663-28.1,6.336C505,18.96,500.113,16.391,479.386,7.649c-20.832-8.784-44.8-9.394-69.591-4.908-27.077,4.9-47.781,14.557-79.083,9.4-13.677-2.25-21.834-8.017-37.006-9.392C267.423.37,250.167,8.365,227.171,13.127c-39.335,8.145-59.076-8.487-95.529-5.68-12.627.971-21.1,4.838-32.444,7.333C71.743,20.826,59.273,13.3,35.88,11.1,20.046,9.606.084,11.935,0,22.043c-.016,1.7,10.262,1.517,11.139.13" transform="translate(0 0.001)" fill="#799d4c"/>
  </g>
</svg>
