<svg xmlns="http://www.w3.org/2000/svg" xmlns:xlink="http://www.w3.org/1999/xlink" width="232.348" height="33.513" viewBox="0 0 232.348 33.513">
  <defs>
    <clipPath id="clip-path">
      <rect id="Rectangle_46" data-name="Rectangle 46" width="232.348" height="33.513" fill="#2b65ad"/>
    </clipPath>
  </defs>
  <g id="Group_47" data-name="Group 47" transform="translate(2 -13)">
    <g id="Group_37" data-name="Group 37" transform="translate(-2 13)" clip-path="url(#clip-path)">
      <path id="Path_45" data-name="Path 45" d="M229.669.363C155-1.263,79.963,2.848,5.439,7.233c-5.026.3-8.529,4.349-1.417,4.986,68.746,6.164,137.585.482,206.361-1.972,6.851-.243,6.752-5.045-.171-4.874A1225.974,1225.974,0,0,0,26.133,23.664c-6.885,1.222-3.518,4.887,1.778,4.921l84.176.544c29.656.191,59.428-.059,88.835,4.332,3.763.561,13.752-3.49,6.006-4.642C148.157,20.065,87,23.881,27.735,23.517l1.777,4.923A1201.075,1201.075,0,0,1,210.382,10.247q-.086-2.437-.171-4.874C142.52,7.775,74.678,13.617,7.031,7.267Q6.322,9.76,5.614,12.253C79.955,8.123,154.4,7.475,228.725,3.684c3.321-.169,5.7-3.217.944-3.321" transform="translate(0 0)" fill="#2b65ad"/>
    </g>
  </g>
</svg>
