<svg id="Logo" xmlns="http://www.w3.org/2000/svg" xmlns:xlink="http://www.w3.org/1999/xlink" width="354.512" height="79.525" viewBox="0 0 354.512 79.525">
  <defs>
    <clipPath id="clip-path">
      <rect id="Rectangle_53" data-name="Rectangle 53" width="354.512" height="79.525" fill="none"/>
    </clipPath>
  </defs>
  <g id="Group_39" data-name="Group 39" clip-path="url(#clip-path)">
    <path id="Path_46" data-name="Path 46" d="M119.093,5.17c-1.21,0-2.872.11-3.14.11-.354,0-1.98-.11-3.959-.11-.464,0-.66.073-.66.269a.308.308,0,0,0,.342.269c1.784,0,2.212.464,2.212,1.161a8.481,8.481,0,0,1-.428,2.481c-1.356,4.973-4.924,16.215-5.963,19.783h-.159l-7.711-22c-.477-1.307-.709-1.821-.978-1.821-.232,0-.391.2-.965,1.784L89.46,29.206h-.073c-.587-2.053-4.619-16.289-5.206-18.769a31.248,31.248,0,0,1-.733-3.568,1.017,1.017,0,0,1,.5-.929,3.818,3.818,0,0,1,1.515-.232c.2,0,.391-.037.391-.269,0-.159-.159-.269-.7-.269-1.943,0-3.654.11-4,.11-.428,0-2.566-.11-4.582-.11-.379,0-.611.073-.611.269,0,.232.147.269.342.269a6.3,6.3,0,0,1,1.747.232c1,.391,1.515.965,2.126,3.03l6.9,23c.782,2.627.978,3.055,1.356,3.055.477,0,.66-.428,1.283-2.053,1.393-3.6,6.709-17.792,8.1-21.519h.086l7.6,21.555c.538,1.515.77,2.016,1.161,2.016.428,0,.623-.464,1.625-3.336,1.515-4.338,5.438-16.667,7.136-21.592.745-2.138,1.356-3.764,2.529-4.191a4.866,4.866,0,0,1,1.32-.2c.232,0,.342-.11.342-.305,0-.159-.2-.232-.538-.232" transform="translate(16.862 1.147)" fill="#141f35"/>
    <path id="Path_47" data-name="Path 47" d="M116.078,25.57a2.1,2.1,0,0,0-2.138,2.138,2.037,2.037,0,0,0,2.1,2.126,2.128,2.128,0,0,0,2.163-2.248,1.987,1.987,0,0,0-2.126-2.016" transform="translate(25.289 5.675)" fill="#141f35"/>
    <path id="Path_48" data-name="Path 48" d="M152.058,34.047a5.3,5.3,0,0,1-1.552-.232c-.819-.244-1.943-.855-3.336-4.313-2.371-5.89-8.456-21.91-9.042-23.376-.464-1.21-.611-1.405-.855-1.405s-.379.232-.843,1.515l-8.81,24.085c-.7,1.943-1.466,3.409-3.25,3.641-.318.037-.855.086-1.124.086-.2,0-.354.073-.354.232,0,.232.232.305.733.305,1.833,0,3.959-.122,4.387-.122s2.09.122,3.03.122c.342,0,.574-.073.574-.305,0-.159-.11-.232-.391-.232h-.379c-.66,0-1.479-.354-1.479-1.136a8.021,8.021,0,0,1,.55-2.591l2.322-6.867a.4.4,0,0,1,.391-.305h8.334a.346.346,0,0,1,.354.232l3.6,9.531c.232.623,0,.978-.232,1.051-.159.037-.281.122-.281.269,0,.232.428.232,1.173.281,2.676.073,5.5.073,6.085.073.428,0,.77-.073.77-.305,0-.2-.147-.232-.379-.232m-11.6-12.293h-7.405c-.122,0-.2-.086-.122-.281L136.344,11q.293-.861.587,0l3.678,10.472c.049.159.049.281-.147.281" transform="translate(27.275 1.048)" fill="#141f35"/>
    <path id="Path_49" data-name="Path 49" d="M154.628,25.57a2.1,2.1,0,0,0-2.138,2.138,2.037,2.037,0,0,0,2.1,2.126,2.135,2.135,0,0,0,2.163-2.248,1.987,1.987,0,0,0-2.126-2.016" transform="translate(33.845 5.675)" fill="#141f35"/>
    <path id="Path_50" data-name="Path 50" d="M176.952,17.942l-1.075-.843c-3.727-2.908-4.729-4.313-4.729-6.525,0-2.823,2.09-4.5,4.766-4.5,3.568,0,4.619,1.637,4.851,2.065a6.618,6.618,0,0,1,.5,1.931c.037.318.073.5.305.5.2,0,.269-.269.269-.892,0-2.627.159-3.91.159-4.106s-.073-.269-.391-.269a6.23,6.23,0,0,1-1.356-.2,14.986,14.986,0,0,0-3.6-.391c-4.924,0-8.028,2.835-8.028,6.99,0,2.627.929,5.034,5.047,8.407l1.747,1.442c3.324,2.749,4.448,4.3,4.448,6.977a5.172,5.172,0,0,1-5.535,5.157c-2.6,0-5.157-1.088-5.743-3.959a6.476,6.476,0,0,1-.122-1.43c0-.318-.037-.428-.269-.428-.2,0-.269.2-.305.623-.037.623-.2,2.163-.2,4.106,0,1.051.037,1.21.587,1.479a11.83,11.83,0,0,0,5.193,1.039,10.206,10.206,0,0,0,5.853-1.625,8.036,8.036,0,0,0,3.3-6.44c0-3.1-1.088-5.5-5.67-9.116" transform="translate(37.219 1.048)" fill="#141f35"/>
    <path id="Path_51" data-name="Path 51" d="M224.13,34.047a8.3,8.3,0,0,1-2.517-.354c-1.662-.538-1.943-2.713-2.09-4.106l-2.6-23.816c-.073-.733-.2-1.051-.464-1.051s-.428.281-.587.623L204.469,29.7,192.6,5.307c-.2-.428-.342-.587-.574-.587s-.391.281-.428.7l-2.8,25.294c-.147,1.466-.269,2.982-1.552,3.214a4.725,4.725,0,0,1-1.161.122c-.2,0-.391.073-.391.183,0,.281.269.354.66.354,1.051,0,2.908-.122,3.263-.122.305,0,2.175.122,3.6.122.464,0,.7-.073.7-.354,0-.11-.159-.183-.305-.183a7.909,7.909,0,0,1-1.479-.2,1.252,1.252,0,0,1-1-1.21c0-.66,0-1.356.037-1.98l1.552-17.987h.147c.428,1.051,4.778,10.35,5.12,11.046.2.391,3.531,7.1,4.546,9.006.733,1.393.929,1.784,1.2,1.784.354,0,.464-.354,1.283-2.065l9.495-20.162h.122L216.493,32.3c.073.7.037,1.356-.147,1.393s-.281.122-.281.269c0,.2.2.318,1.088.391,1.442.11,5.621.232,6.476.232.464,0,.819-.122.819-.354,0-.147-.122-.183-.318-.183" transform="translate(41.216 1.048)" fill="#141f35"/>
    <path id="Path_52" data-name="Path 52" d="M233.637,33.947c-.342,0-1.2-.086-1.747-.159-1.161-.159-1.393-1.014-1.515-2.138-.2-1.625-.2-4.692-.2-8.407V16.412c0-6.049,0-7.136.086-8.37.073-1.369.391-2.016,1.43-2.212a5.219,5.219,0,0,1,.978-.122c.147,0,.305-.073.305-.232,0-.232-.2-.305-.623-.305-1.161,0-3.6.11-3.8.11s-2.627-.11-3.91-.11c-.428,0-.623.073-.623.305,0,.159.159.232.306.232a4.833,4.833,0,0,1,1.21.159c.855.2,1.234.855,1.32,2.175.073,1.234.073,2.322.073,8.37v6.831c0,3.715,0,6.782-.2,8.407-.147,1.124-.342,1.98-1.124,2.138a6.313,6.313,0,0,1-1.161.159c-.232,0-.306.11-.306.232,0,.232.183.305.611.305,1.173,0,3.6-.122,3.8-.122s2.639.122,4.778.122c.415,0,.611-.122.611-.305,0-.122-.073-.232-.305-.232" transform="translate(49.721 1.147)" fill="#141f35"/>
    <path id="Path_53" data-name="Path 53" d="M262.48,5c-.159,0-.513.11-1.088.183a14.95,14.95,0,0,1-2.749.2H244.1c-.464,0-1.943-.073-3.067-.2a7,7,0,0,1-1.711-.464c-.159,0-.305.5-.391.745-.073.305-.843,3.641-.843,4.032,0,.232.073.342.2.342.147,0,.269-.073.379-.391a7.347,7.347,0,0,1,.66-1.2c.623-.929,1.552-1.2,3.959-1.246l5.743-.073V23.343c0,3.715,0,6.782-.2,8.407-.159,1.124-.354,1.98-1.124,2.138a6.443,6.443,0,0,1-1.173.159c-.232,0-.305.11-.305.232,0,.232.2.305.623.305,1.161,0,3.6-.122,3.8-.122s2.639.122,4.766.122c.428,0,.623-.122.623-.305,0-.122-.073-.232-.305-.232-.354,0-1.21-.086-1.747-.159-1.161-.159-1.393-1.014-1.515-2.138-.2-1.625-.2-4.692-.2-8.407V6.932l4.888.073c3.727.086,4.656.978,4.766,2.138l.037.428c.049.538.122.66.318.66.159,0,.269-.159.269-.5,0-.428.122-3.1.122-4.265,0-.244,0-.464-.2-.464" transform="translate(52.844 1.048)" fill="#141f35"/>
    <path id="Path_54" data-name="Path 54" d="M295.353,33.947c-.342,0-1.2-.086-1.735-.159-1.173-.159-1.405-1.014-1.515-2.138-.2-1.625-.2-4.692-.2-8.407V16.412c0-6.049,0-7.136.073-8.37.086-1.369.391-2.016,1.442-2.212a5.115,5.115,0,0,1,.965-.122c.159,0,.305-.073.305-.232,0-.232-.2-.305-.611-.305-1.173,0-3.6.11-3.8.11s-2.639-.11-4.387-.11c-.428,0-.623.073-.623.305,0,.159.159.232.318.232a6.714,6.714,0,0,1,1.32.122c1.271.269,1.589.892,1.662,2.212.073,1.234.073,2.322.073,8.37v.819c0,.2-.11.232-.232.232H271.977c-.122,0-.232-.037-.232-.232v-.819c0-6.049,0-7.136.073-8.37.073-1.369.391-2.016,1.43-2.212a5.219,5.219,0,0,1,.978-.122c.159,0,.306-.073.306-.232,0-.232-.2-.305-.623-.305-1.161,0-3.6.11-3.8.11s-2.627-.11-4.375-.11c-.428,0-.623.073-.623.305,0,.159.159.232.306.232a6.542,6.542,0,0,1,1.32.122c1.283.269,1.589.892,1.674,2.212.073,1.234.073,2.322.073,8.37v6.831c0,3.715,0,6.782-.2,8.407-.147,1.124-.342,1.98-1.124,2.138a6.173,6.173,0,0,1-1.161.159c-.232,0-.318.11-.318.232,0,.232.2.305.623.305,1.173,0,3.617-.122,3.8-.122s2.639.122,4.778.122c.428,0,.623-.122.623-.305,0-.122-.086-.232-.318-.232-.354,0-1.2-.086-1.747-.159-1.161-.159-1.393-1.014-1.5-2.138-.2-1.625-.2-4.692-.2-8.407V19.161a.206.206,0,0,1,.232-.232h16.435a.224.224,0,0,1,.232.232v4.081c0,3.715,0,6.782-.2,8.407-.147,1.124-.342,1.98-1.112,2.138a6.441,6.441,0,0,1-1.173.159c-.232,0-.305.11-.305.232,0,.232.2.305.623.305,1.161,0,3.6-.122,3.8-.122s2.627.122,4.766.122c.428,0,.623-.122.623-.305,0-.122-.086-.232-.318-.232" transform="translate(58.841 1.147)" fill="#141f35"/>
    <path id="Path_55" data-name="Path 55" d="M88.781,34.99c-.086,0-.159.086-.257.1a3.844,3.844,0,0,1-.672.073c-.391.024-4.02,0-4.656,0-.464,0-1.5-.037-2.346-.037-.257,0-.391.037-.391.147s.134.171.281.171a2.9,2.9,0,0,1,.648.061c.525.122.672.318.709.855.024.5.024.941.024,3.348v2.8c0,1.527,0,2.7-.073,3.373-.061.464-.147.758-.489.831a2.351,2.351,0,0,1-.574.061c-.183,0-.244.086-.244.159,0,.134.11.171.342.171.611,0,1.65-.049,2.077-.049s1.589.049,2.627.049c.244,0,.354-.049.354-.171,0-.073-.073-.159-.281-.159a5.794,5.794,0,0,1-.794-.061c-.489-.073-.6-.367-.66-.831-.073-.672-.086-1.8-.086-3.324v-1.3c0-.122.037-.134.11-.134.281,0,2.212.012,2.627.049a.845.845,0,0,1,.782.587,1.435,1.435,0,0,1,.11.477c0,.11.049.232.147.232.171,0,.183-.232.183-.354s.024-.843.061-1.161c.049-.5.134-.929.134-1.026s-.049-.147-.1-.147c-.1,0-.134.073-.22.171a.875.875,0,0,1-.7.281c-.244.012-.464.012-.745.012l-2.285.024c-.1,0-.11-.061-.11-.147V36.285c0-.2.049-.232.147-.232l2.713.061a1.1,1.1,0,0,1,1.051.489,1.23,1.23,0,0,1,.086.587c0,.2.1.269.208.269s.147-.2.171-.318c.012-.183.049-1.124.073-1.283.049-.415.134-.6.134-.709,0-.073-.061-.159-.122-.159" transform="translate(17.858 7.766)" fill="#141f35"/>
    <path id="Path_56" data-name="Path 56" d="M98.813,46.745a6.039,6.039,0,0,1-.831-.061c-.489-.073-.6-.318-.66-.745-.073-.672-.073-1.931-.073-3.458v-2.8c0-2.407,0-2.847.037-3.348.037-.562.171-.782.611-.855a2.427,2.427,0,0,1,.489-.061c.171,0,.257-.037.257-.183,0-.1-.122-.134-.33-.134-.635,0-1.7.037-2.1.037-.464,0-1.589-.037-2.2-.037-.257,0-.391.037-.391.134,0,.147.1.183.257.183a2.365,2.365,0,0,1,.6.073c.354.11.525.305.562.843.012.5.012.941.012,3.348v2.8c0,1.527,0,2.786-.073,3.446-.049.464-.147.684-.477.758a2.539,2.539,0,0,1-.587.061c-.2,0-.257.086-.257.159,0,.122.11.171.318.171.648,0,1.772-.049,2.138-.049.452,0,1.564.049,2.652.049.183,0,.318-.049.318-.171,0-.073-.086-.159-.269-.159" transform="translate(20.779 7.79)" fill="#141f35"/>
    <path id="Path_57" data-name="Path 57" d="M117.6,35.151c-.806,0-1.417.037-1.6.037-.354,0-1.234-.037-2.09-.037-.244,0-.415.024-.415.147,0,.1.061.171.269.171a2.634,2.634,0,0,1,.855.1c.391.147.538.428.55,1.393L115.343,44h-.073c-.244-.22-2.419-2.456-3.531-3.556-2.4-2.322-4.851-4.839-5.047-5.047-.281-.281-.513-.525-.709-.525-.171,0-.281.232-.281.55l-.147,9.372c-.024,1.381-.086,1.808-.513,1.931a3.73,3.73,0,0,1-.733.073c-.159,0-.269.073-.269.159,0,.159.147.171.379.171.831,0,1.613-.049,1.76-.049.305,0,1.063.049,2.126.049.22,0,.379-.037.379-.171,0-.086-.1-.159-.281-.159a2.635,2.635,0,0,1-.855-.122c-.318-.11-.525-.477-.562-1.711l-.183-6.452h.049c.318.269,2.053,2.187,3.837,3.91,1.711,1.65,3.764,3.6,4.79,4.558a.962.962,0,0,0,.672.33c.122,0,.257-.147.257-.5l.183-9.983c.024-.892.159-1.173.6-1.3a1.551,1.551,0,0,1,.5-.061c.183,0,.281-.073.281-.171,0-.122-.147-.147-.367-.147" transform="translate(23.092 7.739)" fill="#141f35"/>
    <path id="Path_58" data-name="Path 58" d="M133.566,46.812a4.112,4.112,0,0,1-.623-.061c-.293-.061-.758-.257-1.393-1.7-1.039-2.4-3.776-8.884-4.167-9.751-.171-.354-.244-.5-.489-.5-.171,0-.293.183-.489.635l-4.277,9.959c-.342.794-.611,1.283-1.356,1.393-.159,0-.342.024-.489.024s-.183.073-.183.159c0,.134.086.171.293.171.855,0,1.735-.049,1.906-.049.513,0,1.283.049,1.821.049.171,0,.257-.037.257-.171,0-.086-.037-.159-.244-.159H123.9c-.5,0-.66-.171-.66-.452a2.8,2.8,0,0,1,.244-.965l.88-2.126c.037-.1.049-.11.147-.11h3.849a.154.154,0,0,1,.171.11l1.271,3.189a.253.253,0,0,1-.147.354c-.171.012-.208.073-.208.159,0,.122.183.122.477.134,1.381.037,2.578.037,3.153.037.611,0,.709-.037.709-.171,0-.11-.073-.159-.22-.159m-5.56-4.533h-3.165c-.049,0-.086-.037-.049-.11l1.576-4c.024-.061.037-.159.1-.159.037,0,.049.1.073.159l1.54,4.02c.024.049,0,.086-.073.086" transform="translate(26.656 7.724)" fill="#141f35"/>
    <path id="Path_59" data-name="Path 59" d="M150.1,35.151c-.794,0-1.405.037-1.589.037-.354,0-1.234-.037-2.09-.037-.244,0-.415.024-.415.147,0,.1.061.171.269.171a2.634,2.634,0,0,1,.855.1c.391.147.538.428.562,1.393L147.853,44h-.073c-.244-.22-2.419-2.456-3.531-3.556-2.4-2.322-4.851-4.839-5.047-5.047-.281-.281-.513-.525-.709-.525-.171,0-.281.232-.281.55l-.147,9.372c-.024,1.381-.086,1.808-.513,1.931a3.76,3.76,0,0,1-.745.073c-.147,0-.257.073-.257.159,0,.159.147.171.379.171.831,0,1.613-.049,1.76-.049.305,0,1.063.049,2.126.049.22,0,.379-.037.379-.171,0-.086-.1-.159-.281-.159a2.589,2.589,0,0,1-.855-.122c-.318-.11-.525-.477-.562-1.711l-.183-6.452h.049c.318.269,2.053,2.187,3.837,3.91,1.711,1.65,3.764,3.6,4.79,4.558a.962.962,0,0,0,.672.33c.122,0,.257-.147.257-.5l.183-9.983c.024-.892.159-1.173.6-1.3a1.515,1.515,0,0,1,.5-.061c.183,0,.281-.073.281-.171,0-.122-.147-.147-.379-.147" transform="translate(30.307 7.739)" fill="#141f35"/>
    <path id="Path_60" data-name="Path 60" d="M164.92,44.121c-.134,0-.171.073-.208.318a2.653,2.653,0,0,1-.562,1.063c-.648.721-1.454.831-2.908.831a5.269,5.269,0,0,1-5.1-5.548,5.126,5.126,0,0,1,1.5-4.118,4.412,4.412,0,0,1,3.092-.892,4.617,4.617,0,0,1,3.165.929,2.243,2.243,0,0,1,.635,1.479c0,.2.037.33.171.33s.208-.171.22-.391c.024-.318.024-1.185.061-1.711.037-.562.073-.745.073-.88,0-.086-.061-.171-.244-.183-.489-.061-1.026-.171-1.637-.257a16.074,16.074,0,0,0-2.383-.171,7.379,7.379,0,0,0-5.193,1.674,6.125,6.125,0,0,0,.122,9.018,8.435,8.435,0,0,0,5.621,1.711,9.772,9.772,0,0,0,2.969-.354.545.545,0,0,0,.428-.464,13.569,13.569,0,0,0,.354-2.1c0-.134-.073-.281-.183-.281" transform="translate(34.112 7.751)" fill="#141f35"/>
    <path id="Path_61" data-name="Path 61" d="M174.353,46.745a6.04,6.04,0,0,1-.831-.061c-.489-.073-.6-.318-.66-.745-.073-.672-.073-1.931-.073-3.458v-2.8c0-2.407,0-2.847.037-3.348.037-.562.171-.782.623-.855a2.316,2.316,0,0,1,.477-.061c.171,0,.269-.037.269-.183,0-.1-.134-.134-.342-.134-.635,0-1.686.037-2.1.037-.464,0-1.589-.037-2.2-.037-.257,0-.391.037-.391.134,0,.147.1.183.269.183a2.338,2.338,0,0,1,.587.073c.354.11.525.305.562.843.012.5.012.941.012,3.348v2.8c0,1.527,0,2.786-.073,3.446-.049.464-.147.684-.477.758a2.462,2.462,0,0,1-.587.061c-.2,0-.257.086-.257.159,0,.122.11.171.318.171.648,0,1.772-.049,2.138-.049.452,0,1.564.049,2.652.049.183,0,.318-.049.318-.171,0-.073-.073-.159-.269-.159" transform="translate(37.545 7.79)" fill="#141f35"/>
    <path id="Path_62" data-name="Path 62" d="M192.326,46.812a4.116,4.116,0,0,1-.611-.061c-.305-.061-.77-.257-1.405-1.7-1.039-2.4-3.776-8.884-4.167-9.751-.171-.354-.244-.5-.477-.5-.171,0-.305.183-.489.635l-4.289,9.959c-.33.794-.611,1.283-1.356,1.393-.147,0-.33.024-.477.024s-.2.073-.2.159c0,.134.1.171.305.171.855,0,1.723-.049,1.894-.049.525,0,1.283.049,1.821.049.171,0,.269-.037.269-.171,0-.086-.037-.159-.244-.159h-.244c-.5,0-.648-.171-.648-.452a3.024,3.024,0,0,1,.232-.965l.88-2.126c.037-.1.061-.11.147-.11h3.861a.154.154,0,0,1,.171.11l1.259,3.189a.253.253,0,0,1-.147.354c-.171.012-.208.073-.208.159,0,.122.2.122.489.134,1.381.037,2.566.037,3.14.037.623,0,.709-.037.709-.171,0-.11-.073-.159-.22-.159m-5.548-4.533h-3.165c-.061,0-.1-.037-.061-.11l1.589-4c.012-.061.037-.159.086-.159s.061.1.073.159l1.552,4.02c.024.049,0,.086-.073.086" transform="translate(39.698 7.724)" fill="#141f35"/>
    <path id="Path_63" data-name="Path 63" d="M204.2,44.509c-.134,0-.171.086-.183.232a1.831,1.831,0,0,1-.415.953c-.4.428-1.039.452-1.918.452-1.259,0-1.894-.1-2.175-.342-.354-.293-.354-1.3-.354-3.324v-2.8c0-2.407,0-2.847.037-3.348.037-.562.171-.782.611-.855a3.851,3.851,0,0,1,.635-.061c.208,0,.305-.049.305-.171s-.122-.147-.354-.147c-.635,0-1.98.037-2.371.037-.44,0-1.491-.037-2.248-.037-.244,0-.354.037-.354.147s.086.171.281.171a2.247,2.247,0,0,1,.538.061c.525.147.672.318.709.855.012.5.012.941.012,3.348v2.8c0,1.454,0,2.7-.073,3.373-.049.464-.147.758-.489.831a2.351,2.351,0,0,1-.574.061c-.2,0-.257.086-.257.159,0,.122.11.171.318.171.33,0,.745-.012,1.136-.037.391,0,.745-.012.929-.012.672,0,1.356.012,2.175.037s1.772.049,2.945.049c.855,0,.929-.073,1.039-.428a11.586,11.586,0,0,0,.244-1.821c0-.2-.037-.354-.147-.354" transform="translate(43.371 7.79)" fill="#141f35"/>
    <path id="Path_64" data-name="Path 64" d="M230.1,41.176c-.538,0-1.393.037-1.918.037-.477,0-1.65-.037-2.5-.037-.232,0-.354.012-.354.147,0,.1.11.171.257.171a3.119,3.119,0,0,1,.635.049c.525.159.684.318.709.868.012.477.012,1.075.012,1.857v1.454a.532.532,0,0,1-.318.562,2.79,2.79,0,0,1-1.149.159c-3.507,0-5.694-2.468-5.694-5.878a4.222,4.222,0,0,1,4.668-4.79A5.09,5.09,0,0,1,228,36.985a2.133,2.133,0,0,1,.562,1.307c.012.122.049.208.171.208s.22-.122.22-.354a21.763,21.763,0,0,1,.11-2.615c0-.11-.037-.171-.22-.183a13.088,13.088,0,0,1-1.307-.171,18.943,18.943,0,0,0-2.908-.257,8.162,8.162,0,0,0-4.411,1.026,5.853,5.853,0,0,0-2.872,5.169c0,4.387,3.556,6.208,7.588,6.208a9.881,9.881,0,0,0,4-.709c.208-.11.208-.134.208-.562V44.3c0-.782,0-1.417.024-1.894.012-.562.183-.782.623-.868a2.286,2.286,0,0,1,.452-.049.193.193,0,0,0,.208-.171c0-.134-.11-.147-.342-.147" transform="translate(48.239 7.751)" fill="#141f35"/>
    <path id="Path_65" data-name="Path 65" d="M246.409,46.745a1.552,1.552,0,0,1-.391-.037,3.14,3.14,0,0,1-1.747-1.051c-.99-.99-2.138-2.419-3.593-4.2,1.6-1.283,2.273-2.334,2.273-3.507a2.785,2.785,0,0,0-1.161-2.175,5.737,5.737,0,0,0-3.1-.672c-.5,0-1.992.037-2.554.037-.342,0-1.381-.037-2.236-.037-.244,0-.367.037-.367.147s.11.171.269.171a3.1,3.1,0,0,1,.66.061c.513.147.672.318.709.855.012.5.012.941.012,3.348v2.8c0,1.454,0,2.7-.073,3.373-.049.464-.147.758-.477.831a2.539,2.539,0,0,1-.587.061c-.2,0-.257.086-.257.159,0,.122.11.171.318.171.648,0,1.686-.049,2-.049.244,0,1.613.049,2.554.049.208,0,.342-.049.342-.171,0-.073-.073-.159-.208-.159a6.453,6.453,0,0,1-.806-.061c-.5-.073-.574-.367-.623-.831-.073-.672-.1-1.906-.1-3.373v-.232c0-.086.049-.122.134-.122l1.466.037a.345.345,0,0,1,.293.11c.208.244.9,1.307,1.552,2.163a7.369,7.369,0,0,0,2.236,2.322,3.43,3.43,0,0,0,1.784.318H246.3c.208,0,.318-.037.318-.171,0-.073-.073-.159-.208-.159m-6.586-5.67a1.635,1.635,0,0,1-1.161.269,4.587,4.587,0,0,1-1.246-.147.26.26,0,0,1-.147-.281V36.2c0-.134.037-.183.147-.22a5.9,5.9,0,0,1,.965-.061,2.488,2.488,0,0,1,2.5,2.81,2.677,2.677,0,0,1-1.063,2.346" transform="translate(51.832 7.79)" fill="#141f35"/>
    <path id="Path_66" data-name="Path 66" d="M255.127,34.92c-4.961,0-6.867,3.495-6.867,6.2,0,2.81,1.943,6.208,6.709,6.208,4.228,0,6.867-2.847,6.867-6.476s-2.566-5.926-6.709-5.926m.513,11.547c-3.092,0-4.961-2.578-4.961-5.829,0-3.91,2.138-4.888,3.971-4.888,2.639,0,4.741,2.163,4.741,5.67,0,4.509-2.6,5.047-3.751,5.047" transform="translate(55.101 7.751)" fill="#141f35"/>
    <path id="Path_67" data-name="Path 67" d="M277.655,35.1c-.635,0-1.735.037-1.918.037-.012,0-1.112-.037-1.955-.037-.22,0-.33.037-.33.147s.086.171.281.171a2.79,2.79,0,0,1,.587.061c.525.147.66.318.7.855.012.5.037.941.037,3.348v1.992c0,1.625-.037,2.994-.953,3.861a3.154,3.154,0,0,1-2.2.831,3.089,3.089,0,0,1-2.065-.635c-.806-.635-1.246-1.527-1.246-3.837V39.682c0-2.407,0-2.847.037-3.348.037-.562.171-.782.6-.855a2.217,2.217,0,0,1,.477-.061c.171,0,.269-.049.269-.171s-.11-.147-.354-.147c-.6,0-1.7.037-2.1.037-.489,0-1.589-.037-2.468-.037-.232,0-.354.037-.354.147s.1.171.281.171a2.936,2.936,0,0,1,.635.061c.525.147.672.293.709.855.037.5.024.941.024,3.348v2.334c0,2.285.648,3.458,1.491,4.191a5.662,5.662,0,0,0,3.739,1.075,5.1,5.1,0,0,0,3.458-1.136c1.381-1.136,1.564-2.994,1.564-4.766v-1.7c0-2.407.024-2.847.037-3.348.037-.562.147-.782.6-.855a2.427,2.427,0,0,1,.489-.061c.183,0,.269-.049.269-.171s-.11-.147-.33-.147" transform="translate(58.748 7.79)" fill="#141f35"/>
    <path id="Path_68" data-name="Path 68" d="M286.579,41.344c-.342,0-.538.073-.538.208,0,.11.11.159.208.159a3.2,3.2,0,0,0,.489.024,3.872,3.872,0,0,0,4.106-3.837,2.779,2.779,0,0,0-.819-1.906,4.18,4.18,0,0,0-3.055-.892c-.733,0-2.041.037-2.713.037-.464,0-1.5-.037-2.371-.037-.232,0-.367.037-.367.147s.11.171.281.171a2.9,2.9,0,0,1,.648.061c.525.147.672.318.709.855.024.5.024.941.024,3.348v2.8c0,1.454,0,2.7-.086,3.373-.049.464-.147.758-.477.831a2.426,2.426,0,0,1-.574.061c-.208,0-.269.086-.269.159,0,.122.11.171.318.171.66,0,1.7-.049,2.065-.049.428,0,1.589.049,2.688.049.159,0,.293-.049.293-.171,0-.073-.073-.159-.257-.159a6.524,6.524,0,0,1-.843-.061c-.477-.073-.574-.367-.623-.819-.086-.684-.086-1.931-.086-3.385V36.2c0-.171.037-.257.134-.293a2.381,2.381,0,0,1,.709-.073,2.5,2.5,0,0,1,1.637.587,2.937,2.937,0,0,1,.965,2.346,2.481,2.481,0,0,1-2.2,2.578" transform="translate(62.483 7.79)" fill="#141f35"/>
    <path id="Path_69" data-name="Path 69" d="M83.774,60.65l-.061-1.21a1.171,1.171,0,0,0-1-1.2V58.23a1.873,1.873,0,0,0-.733-3.58h-2.3v7.124h.88V58.6h1.185c.44,0,.99.061,1.051,1.039l.061,1.112a2.262,2.262,0,0,0,.244,1.026h1.051c-.208-.134-.33-.33-.379-1.124m-2.346-2.774H80.56V55.359H81.6c.819,0,1.3.44,1.3,1.136,0,1.381-.953,1.381-1.466,1.381" transform="translate(17.685 12.13)" fill="#6e8a37"/>
    <path id="Path_70" data-name="Path 70" d="M84.81,60.992V58.438h2.639v-.782H84.81V55.42h2.8v-.77H83.93v7.124h3.8v-.782Z" transform="translate(18.628 12.13)" fill="#6e8a37"/>
    <path id="Path_71" data-name="Path 71" d="M87.41,54.65v.77h1.784v6.354h.88V55.42h1.8v-.77Z" transform="translate(19.401 12.13)" fill="#6e8a37"/>
    <rect id="Rectangle_47" data-name="Rectangle 47" width="0.88" height="7.124" transform="translate(111.967 66.78)" fill="#6e8a37"/>
    <path id="Path_72" data-name="Path 72" d="M97.366,60.65,97.3,59.44a1.181,1.181,0,0,0-1.014-1.2V58.23a1.874,1.874,0,0,0-.721-3.58H93.26v7.124h.88V58.6h1.185c.452,0,.99.061,1.063,1.039l.061,1.112a2.124,2.124,0,0,0,.232,1.026h1.063c-.208-.134-.342-.33-.379-1.124m-2.358-2.774H94.14V55.359h1.051c.819,0,1.283.44,1.283,1.136,0,1.381-.941,1.381-1.466,1.381" transform="translate(20.699 12.13)" fill="#6e8a37"/>
    <path id="Path_73" data-name="Path 73" d="M98.39,60.992V58.438h2.652v-.782H98.39V55.42h2.81v-.77H97.51v7.124h3.8v-.782Z" transform="translate(21.642 12.13)" fill="#6e8a37"/>
    <path id="Path_74" data-name="Path 74" d="M105.62,54.65,104.19,60.3h-.012l-1.43-5.645H101.27v7.124h.88V55.542h.012l1.576,6.232h.88l1.576-6.232h.024v6.232h.88V54.65Z" transform="translate(22.477 12.13)" fill="#6e8a37"/>
    <path id="Path_75" data-name="Path 75" d="M107.85,60.992V58.438h2.639v-.782H107.85V55.42h2.8v-.77H106.97v7.124h3.8v-.782Z" transform="translate(23.742 12.13)" fill="#6e8a37"/>
    <path id="Path_76" data-name="Path 76" d="M114.239,54.65v5.939h-.024l-2.358-5.939H110.72v7.124h.88V56.006h.024l2.285,5.768h1.21V54.65Z" transform="translate(24.574 12.13)" fill="#6e8a37"/>
    <path id="Path_77" data-name="Path 77" d="M114.88,54.65v.77h1.784v6.354h.88V55.42h1.8v-.77Z" transform="translate(25.498 12.13)" fill="#6e8a37"/>
    <rect id="Rectangle_48" data-name="Rectangle 48" width="0.88" height="7.124" transform="translate(147.294 66.78)" fill="#6e8a37"/>
    <path id="Path_78" data-name="Path 78" d="M125.689,54.65v5.939h-.024l-2.358-5.939H122.17v7.124h.88V56.006h.024l2.285,5.768h1.21V54.65Z" transform="translate(27.116 12.13)" fill="#6e8a37"/>
    <path id="Path_79" data-name="Path 79" d="M130.124,59.357c-.037.868-.183,1.857-1.246,1.857-1.222,0-1.381-1.332-1.381-2.982s.159-2.982,1.381-2.982c.9,0,1.161.684,1.185,1.5h.916c-.037-1.405-.648-2.224-2.1-2.224-1.967,0-2.3,1.906-2.3,3.7s.269,3.7,2.3,3.7c1.552,0,2.077-1.234,2.163-2.578Z" transform="translate(28.094 12.103)" fill="#6e8a37"/>
    <path id="Path_80" data-name="Path 80" d="M133.1,54.53c-1.955,0-2.285,1.906-2.285,3.7s.33,3.7,2.285,3.7,2.3-1.906,2.3-3.7-.33-3.7-2.3-3.7m0,6.684c-1.21,0-1.369-1.332-1.369-2.982s.159-2.982,1.369-2.982,1.381,1.332,1.381,2.982-.159,2.982-1.381,2.982" transform="translate(29.033 12.103)" fill="#6e8a37"/>
    <path id="Path_81" data-name="Path 81" d="M139.74,54.65,138.31,60.3h-.024l-1.43-5.645H135.39v7.124h.868V55.542h.024l1.576,6.232h.88l1.576-6.232h.024v6.232h.868V54.65Z" transform="translate(30.05 12.13)" fill="#6e8a37"/>
    <path id="Path_82" data-name="Path 82" d="M141.97,60.992V58.438h2.639v-.782H141.97V55.42h2.8v-.77H141.09v7.124h3.8v-.782Z" transform="translate(31.315 12.13)" fill="#6e8a37"/>
    <rect id="Rectangle_49" data-name="Rectangle 49" width="0.66" height="7.405" transform="translate(181.093 66.633)" fill="#6e8a37"/>
    <path id="Path_83" data-name="Path 83" d="M234,60.992V58.438h2.652v-.782H234V55.42h2.81v-.77h-3.69v7.124h3.812v-.782Z" transform="translate(51.741 12.13)" fill="#6e8a37"/>
    <path id="Path_84" data-name="Path 84" d="M237.682,56.412a1.059,1.059,0,0,1,1.173-1.161c.843,0,1.112.513,1.112,1.271h.88a1.767,1.767,0,0,0-1.992-1.992,1.866,1.866,0,0,0-2.09,1.967c0,2.615,3.36,1.442,3.36,3.458a1.2,1.2,0,0,1-1.234,1.259c-1.283,0-1.344-.855-1.344-1.65h-.868c0,1.515.489,2.371,2.151,2.371a2,2,0,0,0,2.212-2.114c0-2.6-3.36-1.405-3.36-3.409" transform="translate(52.531 12.103)" fill="#6e8a37"/>
    <path id="Path_85" data-name="Path 85" d="M240.56,54.65v.77h1.784v6.354h.88V55.42h1.8v-.77Z" transform="translate(53.392 12.13)" fill="#6e8a37"/>
    <path id="Path_86" data-name="Path 86" d="M247.038,54.65h-1.185L243.8,61.774h.916l.538-1.955h2.273l.513,1.955h.916ZM245.425,59.1l.99-3.446h.024l.9,3.446Z" transform="translate(54.111 12.13)" fill="#6e8a37"/>
    <path id="Path_87" data-name="Path 87" d="M247.65,54.65v.77h1.8v6.354h.88V55.42h1.784v-.77Z" transform="translate(54.966 12.13)" fill="#6e8a37"/>
    <path id="Path_88" data-name="Path 88" d="M252.75,60.992V58.438h2.639v-.782H252.75V55.42h2.8v-.77H251.87v7.124h3.8v-.782Z" transform="translate(55.903 12.13)" fill="#6e8a37"/>
    <path id="Path_89" data-name="Path 89" d="M258.928,54.65H257.12v7.124H258V58.756h1.088a1.915,1.915,0,0,0,2.053-2.065,1.879,1.879,0,0,0-2.212-2.041m.11,3.385H258V55.359h.978a1.136,1.136,0,0,1,1.246,1.3c0,.941-.538,1.381-1.185,1.381" transform="translate(57.068 12.13)" fill="#6e8a37"/>
    <path id="Path_90" data-name="Path 90" d="M261.91,60.992V54.65h-.88v7.124h3.776v-.782Z" transform="translate(57.936 12.13)" fill="#6e8a37"/>
    <path id="Path_91" data-name="Path 91" d="M267.628,54.65h-1.173l-2.065,7.124h.929l.525-1.955h2.273l.513,1.955h.916Zm-1.6,4.448.99-3.446h.012l.916,3.446Z" transform="translate(58.681 12.13)" fill="#6e8a37"/>
    <path id="Path_92" data-name="Path 92" d="M272.619,54.65v5.939h-.024l-2.346-5.939H269.1v7.124h.88V56.006H270l2.285,5.768h1.21V54.65Z" transform="translate(59.727 12.13)" fill="#6e8a37"/>
    <path id="Path_93" data-name="Path 93" d="M277.127,54.65v5.939h-.012l-2.358-5.939H273.62v7.124h.88V56.006h.012l2.285,5.768h1.21V54.65Z" transform="translate(60.73 12.13)" fill="#6e8a37"/>
    <rect id="Rectangle_50" data-name="Rectangle 50" width="0.88" height="7.124" transform="translate(339.861 66.78)" fill="#6e8a37"/>
    <path id="Path_94" data-name="Path 94" d="M283.277,54.65v5.939h-.012l-2.358-5.939H279.77v7.124h.88V56.006h.012l2.285,5.768h1.21V54.65Z" transform="translate(62.095 12.13)" fill="#6e8a37"/>
    <path id="Path_95" data-name="Path 95" d="M286.367,58.819h1.405c0,.941-.086,2.4-1.308,2.4s-1.369-1.332-1.369-2.982.159-2.982,1.369-2.982c.88,0,1.149.648,1.2,1.393h.916a1.966,1.966,0,0,0-2.114-2.114c-1.955,0-2.285,1.906-2.285,3.7,0,1.918.33,3.7,2.175,3.7a1.577,1.577,0,0,0,1.54-1.112h.024V61.8h.66V58.1h-2.212Z" transform="translate(63.074 12.103)" fill="#6e8a37"/>
    <path id="Path_96" data-name="Path 96" d="M159.221,54.65l-1.088,5.816h-.024l-1-5.816h-1.063l-1,5.816h-.024L153.93,54.65h-.88l1.417,7.124h1.075l1.026-5.768h.012l.99,5.768h1.063L160.1,54.65Z" transform="translate(33.969 12.13)" fill="#6e8a37"/>
    <path id="Path_97" data-name="Path 97" d="M160.27,60.992V58.438h2.652v-.782H160.27V55.42h2.8v-.77H159.39v7.124h3.8v-.782Z" transform="translate(35.377 12.13)" fill="#6e8a37"/>
    <path id="Path_98" data-name="Path 98" d="M166.088,54.65h-1.173l-2.065,7.124h.929l.525-1.955h2.273l.513,1.955h.916Zm-1.6,4.448.978-3.446h.024l.9,3.446Z" transform="translate(36.145 12.13)" fill="#6e8a37"/>
    <path id="Path_99" data-name="Path 99" d="M168.44,60.992V54.65h-.88v7.124h3.776v-.782Z" transform="translate(37.19 12.13)" fill="#6e8a37"/>
    <path id="Path_100" data-name="Path 100" d="M170.32,54.65v.77H172.1v6.354h.88V55.42h1.8v-.77Z" transform="translate(37.803 12.13)" fill="#6e8a37"/>
    <path id="Path_101" data-name="Path 101" d="M177.854,54.65v2.908H175.41V54.65h-.88v7.124h.88V58.34h2.444v3.434h.88V54.65Z" transform="translate(38.737 12.13)" fill="#6e8a37"/>
    <path id="Path_102" data-name="Path 102" d="M184.75,54.65,183.32,60.3h-.012l-1.43-5.645H180.4v7.124h.88V55.542h.012l1.576,6.232h.88l1.576-6.232h.024v6.232h.88V54.65Z" transform="translate(40.04 12.13)" fill="#6e8a37"/>
    <path id="Path_103" data-name="Path 103" d="M188.918,54.65h-1.185l-2.053,7.124h.916l.525-1.955h2.285l.5,1.955h.916ZM187.305,59.1l.99-3.446h.024l.9,3.446Z" transform="translate(41.212 12.13)" fill="#6e8a37"/>
    <path id="Path_104" data-name="Path 104" d="M193.909,54.65v5.939h-.024l-2.358-5.939H190.39v7.124h.88V56.006h.024l2.285,5.768h1.2V54.65Z" transform="translate(42.257 12.13)" fill="#6e8a37"/>
    <path id="Path_105" data-name="Path 105" d="M197.718,54.65h-1.185l-2.053,7.124h.916l.525-1.955h2.285l.5,1.955h.916ZM196.105,59.1l.99-3.446h.012l.916,3.446Z" transform="translate(43.165 12.13)" fill="#6e8a37"/>
    <path id="Path_106" data-name="Path 106" d="M201.13,58.819h1.405c0,.941-.1,2.4-1.307,2.4s-1.381-1.332-1.381-2.982.159-2.982,1.381-2.982c.868,0,1.149.648,1.185,1.393h.916a1.962,1.962,0,0,0-2.1-2.114c-1.967,0-2.3,1.906-2.3,3.7,0,1.918.33,3.7,2.187,3.7a1.562,1.562,0,0,0,1.527-1.112h.024V61.8h.66V58.1h-2.2Z" transform="translate(44.153 12.103)" fill="#6e8a37"/>
    <path id="Path_107" data-name="Path 107" d="M204.27,60.992V58.438h2.652v-.782H204.27V55.42h2.811v-.77h-3.69v7.124h3.8v-.782Z" transform="translate(45.142 12.13)" fill="#6e8a37"/>
    <path id="Path_108" data-name="Path 108" d="M211.5,54.65,210.07,60.3h-.012l-1.43-5.645H207.15v7.124h.88V55.542h.012l1.589,6.232h.868l1.576-6.232h.024v6.232h.88V54.65Z" transform="translate(45.977 12.13)" fill="#6e8a37"/>
    <path id="Path_109" data-name="Path 109" d="M213.73,60.992V58.438h2.639v-.782H213.73V55.42h2.81v-.77h-3.69v7.124h3.8v-.782Z" transform="translate(47.242 12.13)" fill="#6e8a37"/>
    <path id="Path_110" data-name="Path 110" d="M220.119,54.65v5.939h-.024l-2.358-5.939H216.6v7.124h.88V56.006h.024l2.285,5.768H221V54.65Z" transform="translate(48.074 12.13)" fill="#6e8a37"/>
    <path id="Path_111" data-name="Path 111" d="M220.76,54.65v.77h1.784v6.354h.88V55.42h1.8v-.77Z" transform="translate(48.998 12.13)" fill="#6e8a37"/>
    <rect id="Rectangle_51" data-name="Rectangle 51" width="0.66" height="7.405" transform="translate(278.959 66.633)" fill="#6e8a37"/>
    <rect id="Rectangle_52" data-name="Rectangle 52" width="274.995" height="1.209" transform="translate(79.514 60.21)" fill="#141f35"/>
    <path id="Path_112" data-name="Path 112" d="M14.346,51.7q-6.269,3.1-8.395,8.5H0V0H45.457a21.562,21.562,0,0,0-4.949,3.238,17.033,17.033,0,0,0-6.1,13.49q0,6.452,7.857,21.237,4.692,8.908,5.988,12.085A59.184,59.184,0,0,0,32.76,48.059q-11.144,0-18.415,3.641" fill="#141f35"/>
    <path id="Path_113" data-name="Path 113" d="M46.374,44.617a18.632,18.632,0,0,1,.244,2.652,24.241,24.241,0,0,1-.305,3.91H11.61a18.549,18.549,0,0,1,5.878-5.914A28.432,28.432,0,0,1,33.63,40.67a57.615,57.615,0,0,1,6.317.354c2.1.232,4.094.55,5.963.941.159.709.318,1.589.464,2.652" transform="translate(2.577 9.027)" fill="#141f35"/>
    <path id="Path_114" data-name="Path 114" d="M71.988,0V60.205H49.174a10.9,10.9,0,0,0,.33-2.529l-.122-4.46a50.134,50.134,0,0,1,6.806,2.236q2.584,1.045,6.452,2.81a3.231,3.231,0,0,0-.232-1.112c-.147-.428-.342-.965-.574-1.589L61.15,55.1,49.5,51.921q-.953-5.26-5.242-13.258-3.464-6.324-6.9-12.782A31.64,31.64,0,0,1,34.01,12.5a14.5,14.5,0,0,1,3.409-9.739A11.021,11.021,0,0,1,40.9,0h9.091a6.692,6.692,0,0,1,1.381,1.479A9.446,9.446,0,0,1,52.9,6.99a11.53,11.53,0,0,1-3.4,7.747c-2.273,2.5-3.409,4.8-3.409,6.916l.244.354q2.694,0,7.442-5.988c3.177-3.984,4.753-6.965,4.753-8.908a7.9,7.9,0,0,0-3.4-6.635c-.232-.171-.464-.33-.709-.477Z" transform="translate(7.549)" fill="#141f35"/>
    <path id="Path_115" data-name="Path 115" d="M11.877,66.927a22.2,22.2,0,0,0,2.908,1.442H0V50.26H5.548a16.888,16.888,0,0,0-.709,5.01q0,7.533,7.038,11.657" transform="translate(0 11.155)" fill="#6e8a37"/>
    <path id="Path_116" data-name="Path 116" d="M46.479,50.26a24.274,24.274,0,0,1-6.366,11.719,22.659,22.659,0,0,1-9.971,6.391H17.9a13.454,13.454,0,0,1-3.874-2.028,10.923,10.923,0,0,1-4.2-9.079,15.972,15.972,0,0,1,1.515-7Z" transform="translate(2.18 11.155)" fill="#6e8a37"/>
    <path id="Path_117" data-name="Path 117" d="M72.616,50.26V68.369H31.18a36.306,36.306,0,0,0,3.409-1.32A25.907,25.907,0,0,0,46.259,57.2a32.449,32.449,0,0,0,2.639-5.34c.22-.55.4-1.088.562-1.6Z" transform="translate(6.92 11.155)" fill="#6e8a37"/>
  </g>
</svg>
